<svg xmlns="http://www.w3.org/2000/svg" viewBox="0 11.579999923706055 89.68000030517578 37.459999084472656" data-asc="0.96875" width="89.68000030517578" height="37.459999084472656"><defs/><g><g fill="#000000"><g transform="translate(0, 0)"><path d="M16.37 12.07L21.84 12.07L21.84 37.86Q21.84 41.35 20.46 43.84Q19.09 46.32 16.60 47.63Q14.12 48.93 10.78 48.93Q7.71 48.93 5.26 47.82Q2.82 46.70 1.41 44.56Q0 42.42 0 39.35L5.45 39.35Q5.45 40.86 6.15 41.96Q6.85 43.06 8.09 43.67Q9.32 44.28 10.92 44.28Q12.66 44.28 13.88 43.55Q15.09 42.81 15.73 41.37Q16.37 39.93 16.37 37.86L16.37 12.07ZM27.02 12.07L33.26 12.07L42.76 28.60L43.15 28.60L52.65 12.07L58.88 12.07L45.69 34.16L45.69 48.44L40.22 48.44L40.22 34.16L27.02 12.07ZM83.90 21.63Q83.61 19.11 81.55 17.71Q79.49 16.32 76.37 16.32Q74.13 16.32 72.50 17.02Q70.86 17.72 69.97 18.94Q69.07 20.15 69.07 21.70Q69.07 22.99 69.68 23.93Q70.29 24.88 71.30 25.51Q72.30 26.14 73.46 26.55Q74.61 26.97 75.67 27.24L79.23 28.16Q80.97 28.59 82.79 29.31Q84.62 30.04 86.19 31.23Q87.75 32.42 88.72 34.18Q89.68 35.94 89.68 38.39Q89.68 41.48 88.09 43.87Q86.51 46.27 83.50 47.66Q80.49 49.04 76.23 49.04Q72.14 49.04 69.16 47.75Q66.18 46.45 64.49 44.06Q62.80 41.67 62.62 38.39L68.13 38.39Q68.29 40.36 69.42 41.66Q70.54 42.97 72.31 43.60Q74.08 44.23 76.19 44.23Q78.52 44.23 80.34 43.49Q82.16 42.76 83.20 41.43Q84.25 40.11 84.25 38.33Q84.25 36.72 83.34 35.69Q82.42 34.66 80.87 33.98Q79.31 33.31 77.36 32.79L73.06 31.62Q68.70 30.43 66.15 28.12Q63.60 25.82 63.60 22.02Q63.60 18.87 65.31 16.53Q67.01 14.19 69.92 12.88Q72.83 11.58 76.49 11.58Q80.18 11.58 83.02 12.87Q85.85 14.17 87.48 16.43Q89.12 18.70 89.19 21.63L83.90 21.63Z"/></g></g></g></svg>